<?xml version="1.0" encoding="UTF-8"?>
<svg
   xmlns="http://www.w3.org/2000/svg"
   xmlns:xlink="http://www.w3.org/1999/xlink"
   width="2976"
   height="2096"
   viewBox="0 0 2976 2096"
   version="1.1">
  <defs>
    <style type="text/css">
      #boxes {
        fill: #140c1c;
      }
      #doors circle {
        fill: #dad45e;
      }
      #doors path {
        stroke: #dad45e;
        stroke-width: 16;
        fill: none;
      }
      #background {
        fill: #4e4a4e;
      }
    </style>
  </defs>
  <rect width="2976" height="2096" x="0" y="0" id="background"/>
  <g id="boxes">
    <rect width=" 672" height="272" x="1328" y="1344" rx="16" ry="16" />
    <rect width=" 432" height="272" x="2032" y="1344" ry="16" rx="16" />
    <rect width=" 432" height="272" x="1904" y="1776" rx="16" ry="16" />
    <rect width=" 432" height="672" x="2496" y="1056" rx="16" ry="16" />
    <rect width=" 672" height="272" x="2256" y=" 752" rx="16" ry="16" />
    <rect width=" 672" height="672" x="2256" y="  48" rx="16" ry="16" />
    <rect width=" 432" height="512" x="1792" y="  48" rx="16" ry="16" />
    <rect width=" 832" height="672" x="1392" y=" 592" rx="16" ry="16" />
    <rect width="1312" height="432" x="  48" y=" 592" rx="16" ry="16" />
    <rect width=" 432" height="992" x="  48" y="1056" rx="16" ry="16" />
    <rect width=" 752" height="352" x=" 512" y="1216" rx="16" ry="16" />
    <rect width="1120" height="352" x=" 720" y="1696" rx="16" ry="16" />
    <rect width=" 672" height="352" x=" 240" y=" 208" rx="16" ry="16" />
    <rect width=" 672" height="352" x="1008" y=" 208" rx="16" ry="16" />
  </g>
  <g id="images">
    <image xlink:href="bot1.png"      width=" 720" height="320" x=" 528" y="1232" />
    <image xlink:href="bot2.png"      width=" 400" height="960" x="  64" y="1072" />
    <image xlink:href="bot3.png"      width="1088" height="320" x=" 736" y="1712" />
    <image xlink:href="entrance1.png" width="1280" height="400" x="  64" y=" 608" />
    <image xlink:href="entrance2.png" width=" 640" height="320" x=" 256" y=" 224" />
    <image xlink:href="entrance3.png" width=" 640" height="320" x="1024" y=" 224" />
    <image xlink:href="hub.png"       width=" 800" height="640" x="1408" y=" 608" />
    <image xlink:href="mid1.png"      width=" 640" height="240" x="1344" y="1360" />
    <image xlink:href="mid1b.png"     width=" 400" height="240" x="2048" y="1360" />
    <image xlink:href="mid2.png"      width=" 400" height="640" x="2512" y="1072" />
    <image xlink:href="passage.png"   width=" 400" height="240" x="1920" y="1792" />
    <image xlink:href="top1.png"      width=" 640" height="240" x="2272" y=" 768" />
    <image xlink:href="top2.png"      width=" 640" height="640" x="2272" y="  64" />
    <image xlink:href="top3.png"      width=" 400" height="480" x="1808" y="  64" />
  </g>
  <g id="doors">
    <circle r="32" cy=" 784" cx="1440" />
    <circle r="32" cy="1056" cx="1512" />
    <circle r="32" cy="1184" cx="1512" />
    <circle r="32" cy="1120" cx="1688" />
    <circle r="32" cy="1024" cx="2174" />
    <circle r="32" cy="1136" cx="2144" />
    <circle r="32" cy=" 704" cx="2152" />
    <circle r="32" cy=" 672" cx="1984" />
    <circle r="32" cy=" 672" cx="1768" />
    <circle r="32" cy=" 576" cx="2288" />
    <circle r="32" cy=" 944" cx="2288" />
    <circle r="32" cy="1136" cx="2560" />
    <circle r="32" cy="1424" cx="2064" />
    <circle r="32" cy="1392" cx="1920" />
    <circle r="32" cy="1520" cx="1360" />
    <circle r="32" cy="1424" cx=" 576" />
    <circle r="32" cy="1856" cx=" 768" />
    <circle r="32" cy="1856" cx="1792" />
    <circle r="32" cy="1968" cx="1944" />
    <circle r="32" cy="1872" cx="2280" />
    <circle r="32" cy="1920" cx=" 256" />
    <circle r="32" cy=" 848" cx=" 120" />
    <circle r="32" cy=" 752" cx=" 592" />
    <circle r="32" cy=" 896" cx=" 992" />
    <circle r="32" cy=" 416" cx=" 288" />
    <circle r="32" cy=" 384" cx="1064" />
    <circle r="32" cy=" 322" cx="1632" />
    <circle r="32" cy=" 400" cx="1832" />
    <circle r="32" cy=" 112" cx="1880" />
    <path d="m 288,416 0,160 304,0 0,176" />
    <path d="m 992,896 0,-512 64,0" />
    <path d="m 1440,784 0,-208 192,0 0,-256" />
    <path d="m 1872,112 -104,0 0,560" />
    <path d="m 1984,672 0,-96 304,0" />
    <path d="m 2160,704 80,0 0,240 32,0" />
    <path d="m 2176,1024 64,0 0,112 304,0" />
    <path d="m 2144,1136 0,192 -784,0 0,192" />
    <path d="m 1920,1392 96,0 0,32 48,0" />
    <path d="m 1792,1856 80,0 0,112 64,0" />
    <path d="m 1504,1056 -1008,0 0,864 -240,0" />
    <path d="m 1504,1184 -928,0 0,240" />
    <path d="m 1688,1120 0,160 -392,0 0,384 -528,0 0,192" />
    <path d="m 1840,400 400,0 0,-368 704,0 0,1840 -672,0" />
  </g>
</svg>
